<svg width="40" height="40" viewBox="0 0 40 40" fill="none" xmlns="http://www.w3.org/2000/svg">
<rect x="0.5" y="0.5" width="39" height="39" rx="4.5" fill="white"/>
<rect x="0.5" y="0.5" width="39" height="39" rx="4.5" stroke="#EDEEF3"/>
<path d="M29 20C27.1114 22.991 23.7183 26 20 26C16.2817 26 12.8886 22.991 11 20C13.2986 17.1582 15.9916 14 20 14C24.0084 14 26.7015 17.1582 29 20Z" stroke="#1C2579" stroke-width="1.5" stroke-linecap="round" stroke-linejoin="round"/>
<path d="M20 22C21.1046 22 22 21.1046 22 20C22 18.8954 21.1046 18 20 18C18.8954 18 18 18.8954 18 20C18 21.1046 18.8954 22 20 22Z" fill="white" stroke="#1C2579" stroke-width="1.5" stroke-linecap="round" stroke-linejoin="round"/>
</svg>
