<svg width="45" height="46" viewBox="0 0 45 46" fill="none" xmlns="http://www.w3.org/2000/svg">
<rect x="3" y="3.5" width="39" height="39" rx="4.5" fill="white"/>
<rect x="3" y="3.5" width="39" height="39" rx="4.5" stroke="#EDEEF3"/>
<path d="M31.5 23C29.6114 25.991 26.2183 29 22.5 29C18.7817 29 15.3886 25.991 13.5 23C15.7986 20.1582 18.4916 17 22.5 17C26.5084 17 29.2015 20.1582 31.5 23Z" stroke="#1C2579" stroke-width="1.5" stroke-linecap="round" stroke-linejoin="round"/>
<path d="M22.5 25C23.6046 25 24.5 24.1046 24.5 23C24.5 21.8954 23.6046 21 22.5 21C21.3954 21 20.5 21.8954 20.5 23C20.5 24.1046 21.3954 25 22.5 25Z" fill="white" stroke="#1C2579" stroke-width="1.5" stroke-linecap="round" stroke-linejoin="round"/>
</svg>
