<svg width="40" height="40" viewBox="0 0 40 40" fill="none" xmlns="http://www.w3.org/2000/svg">
<rect x="0.5" y="0.5" width="39" height="39" rx="4.5" fill="white"/>
<rect x="0.5" y="0.5" width="39" height="39" rx="4.5" stroke="#EDEEF3"/>
<path d="M21.8605 14.6399L22.5858 13.9147C23.3668 13.1336 24.6331 13.1336 25.4142 13.9147L26.0853 14.5858C26.8663 15.3668 26.8663 16.6332 26.0853 17.4142L25.36 18.1395M21.8605 14.6399L14.9303 21.5701C14.5718 21.9287 14.3628 22.41 14.3457 22.9168L14.2861 24.6807C14.2666 25.2592 14.7408 25.7334 15.3193 25.7138L17.0831 25.6543C17.5899 25.6372 18.0713 25.4282 18.4299 25.0696L25.36 18.1395M21.8605 14.6399L25.36 18.1395" stroke="#1C2579" stroke-width="1.5" stroke-linecap="round" stroke-linejoin="round"/>
</svg>
