<svg width="14" height="19" viewBox="0 0 14 19" fill="none" xmlns="http://www.w3.org/2000/svg">
<path d="M11.3565 18.4382C11.5712 18.2951 12.4037 17.8102 13.1148 17.3998C13.7192 17.0509 13.9846 16.3754 13.7051 15.8913L12.392 13.617C12.1136 13.1347 11.3999 13.0255 10.7979 13.3731L9.69755 14.0084C9.43202 14.1617 9.11773 14.1401 8.95526 13.9537C8.39746 13.3137 7.14657 11.8369 6.42481 10.6601C5.61117 9.33344 4.87169 7.25109 4.58016 6.38134C4.50208 6.14839 4.64052 5.86782 4.90423 5.71557L6.02521 5.06837C6.62069 4.72457 6.88492 4.06155 6.61863 3.57932L5.39541 1.36411C5.12506 0.874525 4.41091 0.756493 3.8038 1.10106L1.87778 2.19416C1.37575 2.48346 1.01918 2.85676 0.785024 3.337C0.421623 4.08858 0.257213 4.91913 0.264635 6.01856C0.270664 7.8191 0.642768 10.7139 2.06437 13.1763C3.51034 15.681 6.16054 17.308 6.16054 17.308C6.16054 17.308 8.15101 18.5653 9.43452 18.8455C10.1249 18.9511 10.7343 18.8194 11.3565 18.4382Z" fill="#1C2579"/>
</svg>
