<svg width="19" height="13" viewBox="0 0 19 13" fill="none" xmlns="http://www.w3.org/2000/svg">
<path d="M13.7676 0C15.4475 1.24345e-09 16.288 0.000188149 16.9297 0.327148C17.4939 0.614734 17.9527 1.07348 18.2402 1.6377C18.5672 2.27941 18.5674 3.11978 18.5674 4.7998V8.2002C18.5674 9.88032 18.5672 10.7206 18.2402 11.3623C17.9527 11.9266 17.4939 12.3852 16.9297 12.6729C16.288 12.9998 15.4475 13 13.7676 13H5.36719C3.68703 13 2.84681 12.9998 2.20508 12.6729C1.64077 12.3853 1.18214 11.9266 0.894531 11.3623C0.567554 10.7206 0.567383 9.88032 0.567383 8.2002V4.7998C0.567383 3.11978 0.567563 2.27941 0.894531 1.6377C1.18215 1.07345 1.64078 0.614694 2.20508 0.327148C2.84681 0.000167985 3.68703 0 5.36719 0H13.7676ZM15.3359 3.35645C15.0408 3.06601 14.5659 3.0693 14.2754 3.36426L12.3867 5.28418C11.7802 5.90051 11.3565 6.33037 11 6.6377C10.6503 6.93909 10.4146 7.0776 10.2021 7.14746C9.74635 7.29716 9.25369 7.29699 8.79785 7.14746C8.58548 7.0777 8.34952 6.93885 8 6.6377C7.64355 6.33046 7.21951 5.90023 6.61328 5.28418L4.72363 3.36426C4.43307 3.06937 3.9582 3.06603 3.66309 3.35645C3.36832 3.64702 3.3649 4.12191 3.65527 4.41699L5.54395 6.33594C5.65091 6.44462 5.7558 6.54847 5.85547 6.64941L3.66992 8.74609C3.3715 9.03286 3.3619 9.50787 3.64844 9.80664C3.93515 10.1047 4.4103 10.1143 4.70898 9.82812L6.93262 7.69434C6.96245 7.72078 6.99128 7.74824 7.02051 7.77344C7.44096 8.13577 7.85043 8.41499 8.3291 8.57227C9.08915 8.82182 9.90989 8.8219 10.6699 8.57227C11.1487 8.41495 11.558 8.13586 11.9785 7.77344C12.0078 7.74817 12.0355 7.71988 12.0654 7.69336L14.291 9.82812C14.5899 10.114 15.0651 10.105 15.3516 9.80664C15.6379 9.50805 15.628 9.03291 15.3301 8.74609L13.1426 6.64941C13.2425 6.54821 13.3478 6.44492 13.4551 6.33594L15.3447 4.41699C15.635 4.12198 15.6305 3.64702 15.3359 3.35645Z" fill="#1C2579"/>
</svg>
