<svg width="23" height="17" viewBox="0 0 23 17" fill="none" xmlns="http://www.w3.org/2000/svg">
<path d="M16.6504 0.612305C17.478 0.612304 18.1448 0.611332 18.6826 0.655273C19.229 0.69996 19.7093 0.795243 20.1533 1.02148C20.8587 1.38103 21.4326 1.95475 21.792 2.66016C22.0182 3.10424 22.1126 3.58442 22.1572 4.13086C22.2012 4.66867 22.2012 5.33458 22.2012 6.16211V10.8379C22.2012 11.6654 22.2012 12.3313 22.1572 12.8691C22.1126 13.4156 22.0182 13.8958 21.792 14.3398C21.4325 15.0454 20.8588 15.62 20.1533 15.9795C19.7093 16.2057 19.2289 16.3 18.6826 16.3447C18.1448 16.3887 17.478 16.3877 16.6504 16.3877H6.48438C5.65694 16.3877 4.9909 16.3886 4.45312 16.3447C3.90677 16.3001 3.42645 16.2056 2.98242 15.9795C2.27689 15.62 1.70328 15.0453 1.34375 14.3398C1.1175 13.8957 1.0222 13.4156 0.977539 12.8691C0.933612 12.3313 0.93457 11.6654 0.93457 10.8379V6.16211C0.93457 5.33458 0.933609 4.66867 0.977539 4.13086C1.0222 3.58425 1.11743 3.10436 1.34375 2.66016C1.70328 1.95456 2.27682 1.38101 2.98242 1.02148C3.42657 0.795239 3.90659 0.699927 4.45312 0.655273C4.9909 0.611359 5.65694 0.612305 6.48438 0.612305H16.6504ZM6.48438 2.1123C5.6322 2.1123 5.03775 2.11262 4.5752 2.15039C4.12152 2.18746 3.86057 2.25685 3.66309 2.35742C3.23973 2.57313 2.8954 2.91747 2.67969 3.34082C2.57906 3.53833 2.50974 3.79911 2.47266 4.25293C2.43487 4.71551 2.43457 5.30982 2.43457 6.16211V10.8379C2.43457 11.6902 2.43487 12.2845 2.47266 12.7471C2.50973 13.2007 2.5791 13.4617 2.67969 13.6592C2.89541 14.0824 3.2398 14.4269 3.66309 14.6426C3.86056 14.7431 4.12157 14.8125 4.5752 14.8496C5.03775 14.8874 5.63222 14.8877 6.48438 14.8877H16.6504C17.5024 14.8877 18.0971 14.8874 18.5596 14.8496C19.0133 14.8125 19.2752 14.7432 19.4727 14.6426C19.8957 14.4269 20.2395 14.0823 20.4551 13.6592C20.5557 13.4617 20.625 13.2009 20.6621 12.7471C20.6999 12.2845 20.7012 11.6902 20.7012 10.8379V6.16211C20.7012 5.30985 20.6999 4.7155 20.6621 4.25293C20.625 3.79927 20.5557 3.5383 20.4551 3.34082C20.2395 2.91774 19.8957 2.57313 19.4727 2.35742C19.2752 2.25681 19.0133 2.18748 18.5596 2.15039C18.0971 2.11264 17.5024 2.1123 16.6504 2.1123H6.48438ZM17.0029 5.05273C17.2958 4.76004 17.7706 4.76006 18.0635 5.05273C18.356 5.34561 18.3561 5.8205 18.0635 6.11328L15.4922 8.68359C15.629 8.7127 15.7599 8.77945 15.8662 8.88574L18.0625 11.082C18.3551 11.3749 18.3551 11.8498 18.0625 12.1426C17.7697 12.4353 17.2948 12.4352 17.002 12.1426L14.8057 9.94629C14.6978 9.83837 14.6299 9.70551 14.6016 9.56641C14.3706 9.78943 14.1594 9.98561 13.9619 10.1533C13.5439 10.5082 13.1372 10.7815 12.6631 10.9355C11.9101 11.1801 11.0987 11.1801 10.3457 10.9355C9.87175 10.7815 9.46483 10.5081 9.04688 10.1533C8.84315 9.98034 8.62522 9.77672 8.38574 9.54492C8.36019 9.69178 8.2921 9.83285 8.17871 9.94629L5.98242 12.1426C5.6896 12.4353 5.21475 12.4352 4.92188 12.1426C4.62923 11.8497 4.62917 11.3749 4.92188 11.082L7.11816 8.88574C7.2294 8.77455 7.36699 8.70544 7.51074 8.67871L4.94531 6.11328C4.65266 5.82044 4.65269 5.34559 4.94531 5.05273C5.23815 4.7599 5.71295 4.76001 6.00586 5.05273L8.64062 7.6875C9.2429 8.28978 9.6639 8.70946 10.0176 9.00977C10.3643 9.30405 10.598 9.44023 10.8086 9.50879C11.2603 9.6555 11.7475 9.65544 12.1992 9.50879C12.41 9.4403 12.6442 9.30434 12.9912 9.00977C13.3449 8.70944 13.7658 8.28987 14.3682 7.6875L17.0029 5.05273Z" fill="#1C2579"/>
</svg>
