<svg width="16" height="20" viewBox="0 0 16 20" fill="none" xmlns="http://www.w3.org/2000/svg">
<path d="M12.3565 18.4379C12.5712 18.2949 13.4037 17.81 14.1148 17.3995C14.7192 17.0506 14.9846 16.3752 14.7051 15.891L13.392 13.6167C13.1136 13.1345 12.3999 13.0253 11.7979 13.3728L10.6976 14.0081C10.432 14.1614 10.1177 14.1398 9.95526 13.9534C9.39746 13.3135 8.14657 11.8366 7.42481 10.6598C6.61117 9.3332 5.87169 7.25085 5.58016 6.38109C5.50208 6.14814 5.64052 5.86758 5.90423 5.71533L7.02521 5.06813C7.62069 4.72433 7.88492 4.06131 7.61863 3.57907L6.39541 1.36387C6.12506 0.874281 5.41091 0.756248 4.8038 1.10081L2.87778 2.19392C2.37575 2.48321 2.01918 2.85651 1.78502 3.33676C1.42162 4.08834 1.25721 4.91889 1.26463 6.01832C1.27066 7.81885 1.64277 10.7136 3.06437 13.1761C4.51034 15.6807 7.16054 17.3078 7.16054 17.3078C7.16054 17.3078 9.15101 18.5651 10.4345 18.8452C11.1249 18.9508 11.7343 18.8191 12.3565 18.4379Z" stroke="#1C2579" stroke-width="1.5" stroke-linecap="round" stroke-linejoin="round"/>
</svg>
