<svg width="34" height="24" viewBox="0 0 34 24" fill="none" xmlns="http://www.w3.org/2000/svg">
<path d="M28.3094 4.73C28.3094 3.22 27.0889 2 25.5783 2H8.4317C6.92112 2 5.70065 3.22 5.70065 4.73V10.4C4.76029 10.4 4 11.16 4 12.1V18.71C4 20.53 5.47057 22 7.29127 22H26.7087C28.5294 22 30 20.53 30 18.71V12.1C30 11.16 29.2397 10.4 28.2993 10.4L28.3094 4.73Z" stroke="#040000" stroke-width="2"/>
<path d="M8 19L14.8781 13.7731C16.1902 12.7423 17.9841 12.7423 19.2961 13.7731L26 18.806" stroke="#040000" stroke-linecap="round"/>
<path d="M11 16L6 10" stroke="#040000" stroke-linecap="round"/>
<path d="M23 16L28 10" stroke="#040000" stroke-linecap="round"/>
<path d="M15.752 7C16.1621 7.00001 16.5039 7.34063 16.5039 7.75586H17.5039L17.5078 7.67871C17.5468 7.3005 17.8691 7.00199 18.252 7C18.6604 7.00214 19 7.34193 19 7.75586C19 7.97107 18.9138 8.16197 18.7822 8.29395L17.1445 9.9375L17.1396 9.94238C17.0683 10.016 16.9411 10.0234 16.8555 9.9375L15.2178 8.29395C15.0807 8.14887 15 7.9635 15 7.75586C15 7.34062 15.3418 7 15.752 7Z" fill="#040000" stroke="black"/>
</svg>
