<svg width="21" height="22" viewBox="0 0 21 22" fill="none" xmlns="http://www.w3.org/2000/svg">
<path d="M18 6.99707C18.5523 6.99707 19 7.44479 19 7.99707V18.5498C19 19.0175 18.898 19.4785 18.7021 19.9043C18.531 20.2764 18.292 20.6133 18.001 20.9023L17.873 21.0234C17.5239 21.3379 17.1152 21.5827 16.6719 21.748H16.6709C16.2279 21.9131 15.7556 21.9971 15.2812 21.9971H5.71777C5.30259 21.9971 4.88954 21.9323 4.49609 21.8057L4.32812 21.748C3.88479 21.5827 3.47517 21.3379 3.12598 21.0234V21.0225C2.77657 20.7077 2.49314 20.3291 2.29785 19.9043C2.1267 19.532 2.02709 19.1326 2.00488 18.7246L2 18.5498V7.99707C2 7.44479 2.44772 6.99707 3 6.99707C3.55228 6.99707 4 7.44479 4 7.99707V18.5508C4 18.7246 4.03796 18.9001 4.11523 19.0684C4.17339 19.1949 4.25365 19.3169 4.35547 19.4287L4.46484 19.5371L4.58789 19.6377C4.71704 19.7331 4.86435 19.8136 5.02637 19.874C5.24297 19.9547 5.4784 19.9971 5.71777 19.9971H15.2812C15.5207 19.9971 15.7563 19.9546 15.9727 19.874C16.189 19.7933 16.3796 19.6772 16.5352 19.5371L16.6445 19.4287C16.7466 19.3168 16.8266 19.1947 16.8848 19.0684C16.9619 18.9005 17 18.7245 17 18.5498V7.99707C17 7.44479 17.4477 6.99707 18 6.99707ZM8 8.99707C8.55229 8.99707 9 9.44479 9 9.99707V16.9971C9 17.5494 8.55229 17.9971 8 17.9971C7.44772 17.9971 7 17.5494 7 16.9971V9.99707C7 9.44479 7.44772 8.99707 8 8.99707ZM13 8.99707C13.5523 8.99707 14 9.44479 14 9.99707V16.9971C14 17.5494 13.5523 17.9971 13 17.9971C12.4477 17.9971 12 17.5494 12 16.9971V9.99707C12 9.44479 12.4477 8.99707 13 8.99707ZM11.6895 0C11.9791 6.20513e-05 12.2663 0.0570214 12.5342 0.167969C12.8026 0.279069 13.0461 0.442661 13.251 0.647461C13.4555 0.852177 13.6193 1.09493 13.7305 1.36328C13.8419 1.63218 13.8975 1.91989 13.8975 2.20898V3.26855H19.7539C20.3062 3.26855 20.7539 3.71627 20.7539 4.26855C20.7536 4.82061 20.306 5.26855 19.7539 5.26855H1C0.447878 5.26855 0.000263794 4.82061 0 4.26855C0 3.71627 0.447715 3.26855 1 3.26855H6.85547V2.20898C6.85547 1.91779 6.91284 1.63028 7.02344 1.36328C7.1339 1.09661 7.29614 0.853423 7.50195 0.647461C7.70765 0.441869 7.95146 0.278668 8.21875 0.167969C8.48645 0.0570688 8.77405 0 9.06445 0H11.6895ZM9.06445 2C9.03736 2 9.00998 2.00501 8.98438 2.01562C8.95827 2.02642 8.93482 2.04262 8.91602 2.06152C8.89762 2.07996 8.88206 2.10245 8.87109 2.12891C8.8602 2.1552 8.85547 2.18269 8.85547 2.20898V3.26855H11.8975V2.20898C11.8975 2.18059 11.8919 2.1533 11.8818 2.12891C11.8716 2.1042 11.8565 2.0811 11.8369 2.06152C11.8174 2.04187 11.7945 2.02592 11.7695 2.01562C11.7444 2.00518 11.7169 2.00006 11.6895 2H9.06445Z" fill="black"/>
</svg>
