<svg width="20" height="20" viewBox="0 0 20 20" fill="none" xmlns="http://www.w3.org/2000/svg">
<path d="M9.75 16.5C6.02208 16.5 3 13.4779 3 9.75C3 6.02208 6.02208 3 9.75 3C13.4779 3 16.5 6.02208 16.5 9.75C16.5 10.9795 16.1713 12.1322 15.597 13.125L16.1625 16.1625L13.125 15.597C12.1322 16.1713 10.9795 16.5 9.75 16.5Z" stroke="black" stroke-width="1.5" stroke-linecap="round" stroke-linejoin="round"/>
<path d="M7.75 9.5C8.02614 9.5 8.25 9.72386 8.25 10C8.25 10.2761 8.02614 10.5 7.75 10.5C7.47386 10.5 7.25 10.2761 7.25 10C7.25 9.72386 7.47386 9.5 7.75 9.5ZM9.75 9.5C10.0261 9.5 10.25 9.72386 10.25 10C10.25 10.2761 10.0261 10.5 9.75 10.5C9.47386 10.5 9.25 10.2761 9.25 10C9.25 9.72386 9.47386 9.5 9.75 9.5ZM11.75 9.5C12.0261 9.5 12.25 9.72386 12.25 10C12.25 10.2761 12.0261 10.5 11.75 10.5C11.4739 10.5 11.25 10.2761 11.25 10C11.25 9.72386 11.4739 9.5 11.75 9.5Z" fill="black"/>
</svg>
