<svg width="20" height="20" viewBox="0 0 20 20" fill="none" xmlns="http://www.w3.org/2000/svg">
<path fill-rule="evenodd" clip-rule="evenodd" d="M10.1782 3C11.2504 3.00011 12.2902 3.35755 13.0425 4.27734C14.5151 4.82263 15.3472 5.82526 15.729 7H16.2798C16.755 7.0001 17.0775 7.30156 17.2427 7.55078C17.4154 7.81179 17.5084 8.13724 17.5005 8.46094L17.4995 8.46387C17.4552 9.98148 17.2255 11.4544 16.6108 12.6973C16.0535 13.8239 15.1895 14.7366 13.9311 15.3174V16.0596C13.9311 16.7854 13.3761 17.5 12.5483 17.5H7.95262C7.13131 17.4997 6.5698 16.8012 6.5698 16.0596V15.4297C5.27775 14.8579 4.41159 13.916 3.86277 12.7617C3.25858 11.4909 3.04547 9.98314 3.00144 8.46387L3.00047 8.46094C2.99255 8.13733 3.08567 7.81175 3.25828 7.55078C3.42329 7.3016 3.74603 7.0003 4.22117 7H4.62254C4.77934 6.50225 5.01709 6.02304 5.37742 5.59082C5.84396 5.03134 6.48064 4.59247 7.31101 4.2793C8.06754 3.35995 9.10024 3.0001 10.1782 3ZM10.1782 4.5C9.41087 4.5001 8.81148 4.75274 8.38035 5.34863L8.23972 5.54395L8.01219 5.62012C7.28486 5.86478 6.8287 6.19248 6.52976 6.55078C6.22911 6.91142 6.04481 7.35335 5.94187 7.89062L5.82566 8.5H4.50437C4.55101 9.90089 4.75224 11.1388 5.21726 12.1172C5.67741 13.085 6.40029 13.8153 7.56004 14.209L8.0698 14.3818V16H12.4311V14.293L12.9253 14.1133C14.0733 13.6953 14.8003 12.974 15.2661 12.0322C15.7355 11.083 15.9496 9.8834 15.9966 8.5H7.25047C7.04358 8.49975 6.87547 8.33195 6.87547 8.125C6.87547 7.91805 7.04358 7.75025 7.25047 7.75H14.3833C14.1653 6.80481 13.597 6.02618 12.352 5.62305L12.1157 5.54688L11.9721 5.34473C11.5517 4.75533 10.9491 4.50011 10.1782 4.5Z" fill="black"/>
</svg>
