<svg width="20" height="20" viewBox="0 0 20 20" fill="none" xmlns="http://www.w3.org/2000/svg">
<path d="M3 11.5V8C3 5.23858 5.23858 3 8 3H11.5C14.2614 3 16.5 5.23858 16.5 8V11.5C16.5 14.2614 14.2614 16.5 11.5 16.5H8C5.23858 16.5 3 14.2614 3 11.5Z" stroke="black" stroke-width="1.5"/>
<path d="M12.3462 11.3076C12.3462 11.3076 11.4808 12.3461 9.75004 12.3461C8.01927 12.3461 7.15388 11.3076 7.15388 11.3076" stroke="black" stroke-width="1.5" stroke-linecap="round" stroke-linejoin="round"/>
<path d="M7.41354 9.23054C6.98339 9.23054 6.63469 8.88184 6.63469 8.4517C6.63469 8.02155 6.98339 7.67285 7.41354 7.67285C7.84368 7.67285 8.19238 8.02155 8.19238 8.4517C8.19238 8.88184 7.84368 9.23054 7.41354 9.23054Z" fill="black"/>
<path d="M12.0866 9.23054C11.6565 9.23054 11.3078 8.88184 11.3078 8.4517C11.3078 8.02155 11.6565 7.67285 12.0866 7.67285C12.5168 7.67285 12.8655 8.02155 12.8655 8.4517C12.8655 8.88184 12.5168 9.23054 12.0866 9.23054Z" fill="black"/>
</svg>
