<svg width="20" height="20" viewBox="0 0 20 20" fill="none" xmlns="http://www.w3.org/2000/svg">
<path d="M8.37861 16.2846L8.78688 16.2848C8.95457 16.2849 9.11856 16.2084 9.22056 16.0773L12.9437 11.4861C13.0894 11.3039 13.3117 11.1983 13.545 11.1985L16.2644 11.1999C16.9133 11.2148 17.4598 10.7193 17.5178 10.0778C17.5539 9.42166 17.0542 8.86367 16.398 8.82687C16.3762 8.82686 16.3543 8.82683 16.3324 8.82682L13.5474 8.82535C13.3141 8.82523 13.0917 8.71941 12.9458 8.53706L9.21782 3.942C9.10839 3.81071 8.9516 3.73408 8.78392 3.73399L8.37565 3.73377C8.22983 3.73369 8.10959 3.85393 8.10603 4.00339C8.10603 4.01797 8.10603 4.03983 8.11333 4.05441L8.96497 8.37458C9.01249 8.60426 8.86314 8.82653 8.63351 8.8738C8.62258 8.87744 8.6153 8.87744 8.60437 8.88108L7.0151 9.07708C6.76723 9.10611 6.51567 9.02943 6.32968 8.8653L5.09333 7.7747C5.0058 7.69445 4.88913 7.65065 4.76884 7.65424L4.56469 7.65412C4.43346 7.65405 4.32416 7.76335 4.32423 7.89458C4.32423 7.90916 4.32425 7.93104 4.33155 7.94563L4.59097 9.06488C4.62019 9.18883 4.5437 9.31637 4.41977 9.34546L3.92772 9.47279C3.68352 9.53463 3.51231 9.75693 3.51244 10.0048C3.51258 10.26 3.69132 10.4824 3.93923 10.5409L4.41683 10.6542C4.54078 10.6834 4.62105 10.8074 4.5956 10.9349L4.34101 12.0721C4.31192 12.2033 4.39218 12.3273 4.52343 12.3566C4.54166 12.3602 4.55989 12.3639 4.57447 12.3639L4.7786 12.364C4.89525 12.364 5.01189 12.3204 5.10299 12.2439L6.33818 11.1546C6.52401 10.9906 6.77548 10.9142 7.02338 10.9435L8.61284 11.1412C8.84615 11.1705 9.01395 11.382 8.98491 11.6153C8.98127 11.6262 8.98128 11.6335 8.97764 11.6444L8.13056 15.9637C8.10147 16.1095 8.19632 16.248 8.34215 16.2773C8.36038 16.2809 8.37496 16.281 8.39319 16.2846L8.37861 16.2846Z" fill="black"/>
</svg>
