<svg width="15" height="15" viewBox="0 0 15 15" fill="none" xmlns="http://www.w3.org/2000/svg">
<path d="M7 12C4.51472 12 2.5 9.98528 2.5 7.5C2.5 5.01472 4.51472 3 7 3C9.48528 3 11.5 5.01472 11.5 7.5C11.5 8.31965 11.2809 9.08811 10.898 9.75L11.275 11.775L9.25 11.398C8.58811 11.7809 7.81965 12 7 12Z" stroke="black" stroke-linecap="round" stroke-linejoin="round"/>
<path d="M5 7C5.27614 7 5.5 7.22386 5.5 7.5C5.5 7.77614 5.27614 8 5 8C4.72386 8 4.5 7.77614 4.5 7.5C4.5 7.22386 4.72386 7 5 7ZM7 7C7.27614 7 7.5 7.22386 7.5 7.5C7.5 7.77614 7.27614 8 7 8C6.72386 8 6.5 7.77614 6.5 7.5C6.5 7.22386 6.72386 7 7 7ZM9 7C9.27614 7 9.5 7.22386 9.5 7.5C9.5 7.77614 9.27614 8 9 8C8.72386 8 8.5 7.77614 8.5 7.5C8.5 7.22386 8.72386 7 9 7Z" fill="black"/>
</svg>
