<svg width="145" height="14" viewBox="0 0 145 14" fill="none" xmlns="http://www.w3.org/2000/svg">
<path d="M16.9264 0.00527545C18.6018 0.00527545 20.3664 0.736616 21.1023 2.37395C21.3841 2.98328 21.4573 3.55594 21.4939 4.21825H19.035C19.0506 2.96776 18.0385 2.24105 16.8694 2.24101C16.0397 2.24101 14.9385 2.70224 14.9382 3.69282C14.9382 4.6837 16.0974 4.99145 16.8124 5.27229C17.9449 5.72792 19.5207 6.2474 20.4966 6.95199C21.4725 7.65139 21.8642 8.66872 21.8643 9.86615C21.8643 10.5709 21.6918 11.2815 21.3577 11.8909L21.192 12.1694C20.2899 13.5292 18.7003 14 17.1248 14C14.8859 13.9999 12.8193 13.0668 12.1616 10.7197C12.0102 10.2057 11.9892 9.69126 11.9526 9.15608H14.4105C14.447 9.5217 14.5049 9.86147 14.6406 10.2059C15.0686 11.2919 16.0396 11.7474 17.1565 11.7474C18.002 11.7474 19.2756 11.3817 19.2756 10.3167C19.2755 10.0891 19.2027 9.93538 19.1088 9.72899C18.8322 9.15678 17.7933 8.75933 17.2504 8.53146C16.123 8.04927 14.6976 7.53449 13.7372 6.79795C12.8399 6.08804 12.3855 5.09754 12.3853 3.95343C12.3853 1.36242 14.6039 0.00540265 16.9264 0.00527545Z" fill="#484A4E"/>
<path d="M140.057 0C141.732 0 143.497 0.720767 144.233 2.3634C144.515 2.97271 144.588 3.54538 144.63 4.21298H142.16C142.186 2.95723 141.169 2.23055 140.005 2.23046C139.175 2.23046 138.069 2.68638 138.069 3.68227C138.069 4.67827 139.242 4.98092 139.947 5.26701C141.074 5.72269 142.651 6.23674 143.627 6.94144C144.608 7.64614 145 8.66345 145 9.86088C145 10.5603 144.827 11.271 144.493 11.8803L144.316 12.1589C143.41 13.5191 141.825 13.9947 140.239 13.9947C138.011 13.9946 135.944 13.0562 135.287 10.7092C135.13 10.1952 135.114 9.68071 135.078 9.14553H137.541C137.583 9.51115 137.635 9.85622 137.771 10.1953C138.204 11.2814 139.175 11.7368 140.282 11.7368C141.127 11.7368 142.406 11.3764 142.406 10.3114C142.406 10.0785 142.333 9.9301 142.239 9.71844C141.952 9.14625 140.924 8.74348 140.381 8.52091C139.259 8.04402 137.828 7.52396 136.868 6.78212C135.965 6.07751 135.512 5.08699 135.512 3.94815C135.512 1.35182 137.729 0.00010588 140.057 0Z" fill="#484A4E"/>
<path d="M26.17 13.7352H23.6182V0.271158H26.17V13.7352Z" fill="#484A4E"/>
<path fill-rule="evenodd" clip-rule="evenodd" d="M11.5875 13.7299H8.95657L8.13658 10.9276H3.45514L2.62566 13.7299H0L4.48831 0.271158H7.08231L11.5875 13.7299ZM4.09678 8.71716H7.49494L5.78848 3.22752L4.09678 8.71716Z" fill="#484A4E"/>
<path fill-rule="evenodd" clip-rule="evenodd" d="M39.083 13.7299H36.4468L35.6226 10.9276H30.9454L30.1212 13.7299H27.4955L31.9838 0.271158H34.5726L39.083 13.7299ZM31.587 8.71716H34.9852L33.2787 3.22752L31.587 8.71716Z" fill="#484A4E"/>
<path d="M48.1441 9.74587V0.271158H50.565V13.7299H48.0027L42.4495 4.25624V13.7299H40.0223V0.271158H42.7524L48.1441 9.74587Z" fill="#484A4E"/>
<path fill-rule="evenodd" clip-rule="evenodd" d="M63.1034 13.7299H60.4671L59.6429 10.9276H54.9657L54.1415 13.7299H51.5159L56.0042 0.271158H58.5929L63.1034 13.7299ZM55.6074 8.71716H59.0055L57.299 3.22752L55.6074 8.71716Z" fill="#484A4E"/>
<path fill-rule="evenodd" clip-rule="evenodd" d="M80.6661 13.7246H78.0352L77.2099 10.9223H72.5338L71.7096 13.7246H69.0786L73.5669 0.265883H76.1609L80.6661 13.7246ZM73.1701 8.71188H76.5683L74.8618 3.21697L73.1701 8.71188Z" fill="#484A4E"/>
<path d="M84.5898 13.7246H82.0381V0.265883H84.5898V13.7246Z" fill="#484A4E"/>
<path fill-rule="evenodd" clip-rule="evenodd" d="M91.2753 0.265883C92.0892 0.273334 92.9141 0.323852 93.6773 0.609842C95.3474 1.21918 96.2459 2.62896 96.2459 4.40395C96.2459 6.17906 95.4418 7.41409 93.9021 8.14003L96.9498 13.7246H93.9801L91.2711 8.57472H89.4338V13.7246H86.8767V0.265883H91.2753ZM89.4338 6.36431H91.1044C92.4562 6.36431 93.6414 5.98849 93.6414 4.36175C93.6414 3.61464 93.3016 3.02627 92.6283 2.72424C92.0647 2.45419 91.2716 2.47524 90.6559 2.47524H89.4338V6.36431Z" fill="#484A4E"/>
<path d="M100.833 11.5153H106.606V13.7246H98.2289V0.265883H100.833V11.5153Z" fill="#484A4E"/>
<path d="M110.662 13.7246H108.105V0.265883H110.662V13.7246Z" fill="#484A4E"/>
<path d="M121.069 9.7406V0.265883H123.486V13.7246H120.933L115.375 4.25096V13.7246H112.953V0.265883H115.678L121.069 9.7406Z" fill="#484A4E"/>
<path d="M134.117 2.47524H128.313V5.63841H133.596V7.84882H128.313V11.5153H134.326V13.7246H125.761V0.265883H134.117V2.47524Z" fill="#484A4E"/>
</svg>
